HIERARCHY
ROOT Hips
{
  OFFSET 90.7885 88.945 -76.2838
  CHANNELS 6 Xposition Yposition Zposition Zrotation Xrotation Yrotation
  JOINT LeftUpLeg
  {
    OFFSET 8.64259 1.95398 -2.38835
    CHANNELS 3 Zrotation Xrotation Yrotation
    JOINT LeftLeg
    {
      OFFSET 43.7702 0 0
      CHANNELS 3 Zrotation Xrotation Yrotation
      JOINT LeftFoot
      {
        OFFSET 40.6238 0 0
        CHANNELS 3 Zrotation Xrotation Yrotation
        JOINT LeftToeBase
        {
          OFFSET 12.7242 0 0
          CHANNELS 3 Zrotation Xrotation Yrotation
          End Site
          {
            OFFSET 0 0 0
          }
        }
      }
    }
  }
  JOINT RightUpLeg
  {
    OFFSET -8.2249 1.95398 -2.59336
    CHANNELS 3 Zrotation Xrotation Yrotation
    JOINT RightLeg
    {
      OFFSET 43.5653 0 0
      CHANNELS 3 Zrotation Xrotation Yrotation
      JOINT RightFoot
      {
        OFFSET 40.6238 0 0
        CHANNELS 3 Zrotation Xrotation Yrotation
        JOINT RightToeBase
        {
          OFFSET 12.7242 0 0
          CHANNELS 3 Zrotation Xrotation Yrotation
          End Site
          {
            OFFSET 0 0 0
          }
        }
      }
    }
  }
  JOINT Spine
  {
    OFFSET 0.165834 0.87714 6.61349
    CHANNELS 3 Zrotation Xrotation Yrotation
    JOINT Spine1
    {
      OFFSET 7.38963 1.71661e-005 0
      CHANNELS 3 Zrotation Xrotation Yrotation
      JOINT Spine2
      {
        OFFSET 11.9445 1.14441e-005 0
        CHANNELS 3 Zrotation Xrotation Yrotation
        JOINT Spine3
        {
          OFFSET 14.7254 4.19617e-005 0
          CHANNELS 3 Zrotation Xrotation Yrotation
          JOINT Spine4
          {
            OFFSET 10.9679 0 0
            CHANNELS 3 Zrotation Xrotation Yrotation
            JOINT RightShoulder
            {
              OFFSET 2.46616 -1.6653 3.69651
              CHANNELS 3 Zrotation Xrotation Yrotation
              JOINT RightArm
              {
                OFFSET 13.0012 0 0
                CHANNELS 3 Zrotation Xrotation Yrotation
                JOINT RightForeArm
                {
                  OFFSET 28.7848 1.52588e-005 0
                  CHANNELS 3 Zrotation Xrotation Yrotation
                  JOINT RightHand
                  {
                    OFFSET 26.5688 1.52588e-005 0
                    CHANNELS 3 Zrotation Xrotation Yrotation
                    End Site
                    {
                      OFFSET 0 0 0
                    }
                  }
                }
              }
            }
            JOINT LeftShoulder
            {
              OFFSET 2.38034 -1.29275 -3.7523
              CHANNELS 3 Zrotation Xrotation Yrotation
              JOINT LeftArm
              {
                OFFSET 16.3182 6.10352e-005 0
                CHANNELS 3 Zrotation Xrotation Yrotation
                JOINT LeftForeArm
                {
                  OFFSET 27.0901 0 0
                  CHANNELS 3 Zrotation Xrotation Yrotation
                  JOINT LeftHand
                  {
                    OFFSET 24.5451 1.52588e-005 0
                    CHANNELS 3 Zrotation Xrotation Yrotation
                    End Site
                    {
                      OFFSET 0 0 0
                    }
                  }
                }
              }
            }
            JOINT Neck
            {
              OFFSET 5.0226 -0.0266342 0
              CHANNELS 3 Zrotation Xrotation Yrotation
              JOINT Head
              {
                OFFSET 6.69363 2.86102e-005 0
                CHANNELS 3 Zrotation Xrotation Yrotation
                End Site
                {
                  OFFSET 0 0 0
                }
              }
            }
          }
        }
      }
    }
  }
}
MOTION
Frames:	6
Frame Time:	0.0416667
26.4956 99.4478 23.0299 -133.036 -81.9459 -133.617 -177.322 -1.30155 90.2443 -14.5162 -5.85789 -0.556624 73.69 5.12795 -4.46467 11.6371 -1.47895 4.15498 170.456 -0.617143 86.6781 -14.2206 -13.0952 -1.48161 69.4868 -4.96223 1.65964 21.4748 -1.12212 3.75371 0.449472 7.37789 -90.0471 12.1191 0.871252 -0.190169 0.448454 0.86203 -0.228337 -22.089 0.888112 0.080489 -2.07639 0.888126 0.080492 90.9165 -29.8188 -105.003 42.4781 -19.3204 -5.42903 4.34656 -22.2329 -16.9739 -23.5986 -0.693592 -7.00917 -86.5785 -52.4306 84.2339 -20.8133 25.9803 -16.7155 0.239899 2.44148 -7.7611 0.328097 -0.157974 -7.23013 8.11779 -0.71858 -1.52552 -6.27775 -0.456906 1.92297 
26.5627 99.3701 23.0393 -135.943 -82.7362 -136.434 -177.371 -0.479066 90.3593 -15.3616 -4.56985 -0.418096 73.7224 5.05503 -4.2948 12.3091 -2.23981 4.93002 170.373 -0.966004 86.7523 -12.9058 -12.128 -1.25298 68.9315 -4.80678 2.08007 22.7511 -1.26669 3.87763 0.399876 7.36409 -90.1012 12.1468 0.747043 -0.284691 0.476027 0.733793 -0.317301 -22.0608 0.798064 -0.0469933 -2.04818 0.798067 -0.0469965 90.9428 -29.697 -104.994 42.2062 -18.1672 -6.05826 4.50623 -25.9409 -15.2475 -25.038 -0.718279 -7.95962 -87.039 -53.651 83.7491 -19.7882 25.9543 -17.2979 -0.329634 0.248241 -7.24879 3.68078 -0.209854 -6.59715 7.81451 -0.81464 -0.574169 -5.43414 -0.709199 0.980549 
26.6473 99.4109 23.1099 -136.191 -82.6528 -136.922 -177.613 -0.662993 90.4101 -15.3376 -4.65667 -0.313024 72.9333 4.7903 -3.97542 13.9426 -2.64588 5.25019 170.095 -0.976316 86.3677 -12.9992 -12.3991 -1.21317 69.2285 -4.94659 1.82182 22.3662 -1.48333 4.37044 0.429797 7.36965 -90.051 12.1357 0.830278 -0.193336 0.464984 0.82097 -0.229699 -22.0723 0.849994 0.065159 -2.05967 0.849991 0.0651447 91.044 -29.9222 -104.711 42.2949 -18.2132 -6.22463 4.81175 -27.4426 -14.6485 -25.8463 -0.796071 -7.93082 -86.9904 -52.7662 83.6833 -20.9649 25.2949 -17.3314 -0.0029249 0.50853 -6.69471 3.03103 -0.204926 -6.7776 7.61801 -0.873518 -1.14406 -5.29343 -0.665713 1.52717 
26.5857 99.4056 23.2493 -134.415 -82.9615 -134.891 -177.463 0.0137963 90.0564 -15.5454 -4.41078 -0.346782 73.2011 4.88973 -3.83909 13.6874 -2.45635 5.05769 170.336 -0.996082 86.7775 -12.5921 -12.1241 -1.20798 69.1274 -4.94944 1.64331 22.1299 -1.47896 4.38982 0.453991 7.31967 -90.0951 12.2361 0.857332 -0.285407 0.565352 0.843947 -0.322872 -21.9721 0.903469 -0.0145323 -1.95943 0.903472 -0.0145299 91.1304 -29.8678 -104.558 42.3824 -18.0801 -6.18997 4.277 -26.0882 -15.1991 -24.5714 -0.728258 -7.98733 -87.146 -52.8811 83.4744 -20.6991 25.4072 -17.191 0.0541589 1.24193 -6.96171 2.72488 -0.176972 -6.32296 7.60538 -0.986153 -1.08319 -5.32975 -0.791795 1.60486 
26.5677 99.423 23.422 -132.25 -82.7886 -132.528 -177.216 -0.474731 90.548 -15.1921 -4.54634 -0.543076 73.448 4.98658 -4.23752 13.2826 -2.96548 5.66063 170.633 -0.974326 87.0903 -12.9411 -12.0401 -1.37559 69.305 -4.95681 1.71869 21.6819 -1.25667 3.99636 0.462987 7.30499 -90.0886 12.2652 0.878179 -0.275534 0.594562 0.865211 -0.313929 -21.943 0.920388 0.00116194 -1.93032 0.920393 0.00115658 90.7416 -30.1369 -105.237 42.3155 -17.9997 -6.12773 3.97095 -25.1315 -15.4826 -24.2123 -0.704242 -7.85632 -86.8102 -52.4175 83.8926 -20.7579 25.6888 -17.2183 0.0251963 2.20613 -6.81856 1.77931 -0.17748 -6.76855 7.57898 -0.898352 -1.62645 -5.13744 -0.598276 1.83707 
26.6749 99.3861 23.5636 -131.385 -83.0079 -132.103 -177.603 -0.351969 89.9387 -15.1141 -4.87357 -0.399317 73.2649 4.97382 -4.13103 13.3099 -2.67561 5.33307 170.291 -0.358542 86.475 -13.3685 -12.5038 -1.31302 68.8803 -4.69098 2.21228 22.9646 -1.21067 3.73442 0.461531 7.28284 -90.0935 12.3097 0.880959 -0.285142 0.63899 0.859496 -0.323294 -21.8985 0.918226 -0.00959526 -1.88587 0.918227 -0.00959973 91.0071 -29.6853 -104.87 42.6028 -18.2458 -6.14403 4.74916 -24.0781 -14.7846 -27.2433 -0.485562 -8.45383 -87.1777 -53.6953 83.5562 -19.7855 25.9635 -17.1347 -0.251257 1.2697 -7.04042 2.22924 -0.168597 -6.31145 7.43209 -0.980893 -0.695223 -4.98634 -0.856253 1.36194 
